<mxfile host="app.diagrams.net" modified="2023-01-28T23:29:57.056Z" agent="5.0 (X11; Linux x86_64) AppleWebKit/537.36 (KHTML, like Gecko) Chrome/108.0.0.0 Safari/537.36" etag="VGFmOmZUy7ph9e_HUuf2" version="20.8.12" type="github">
  <diagram id="ooM96mxMuV-w2LaP69B2" name="Page-1">
    <mxGraphModel dx="1802" dy="1348" grid="0" gridSize="10" guides="1" tooltips="1" connect="1" arrows="1" fold="1" page="0" pageScale="1" pageWidth="827" pageHeight="1169" math="0" shadow="0">
      <root>
        <mxCell id="0" />
        <mxCell id="1" parent="0" />
        <mxCell id="GcNyAwlGQuFy15fl2Ail-3" value="" style="edgeStyle=none;curved=1;rounded=0;orthogonalLoop=1;jettySize=auto;html=1;fontSize=12;startSize=8;endSize=8;" parent="1" target="GcNyAwlGQuFy15fl2Ail-2" edge="1">
          <mxGeometry relative="1" as="geometry">
            <mxPoint x="156" y="-48" as="sourcePoint" />
          </mxGeometry>
        </mxCell>
        <mxCell id="GcNyAwlGQuFy15fl2Ail-5" value="" style="edgeStyle=none;curved=1;rounded=0;orthogonalLoop=1;jettySize=auto;html=1;fontSize=12;startSize=8;endSize=8;" parent="1" source="GcNyAwlGQuFy15fl2Ail-2" target="GcNyAwlGQuFy15fl2Ail-4" edge="1">
          <mxGeometry relative="1" as="geometry" />
        </mxCell>
        <mxCell id="GcNyAwlGQuFy15fl2Ail-2" value="decimalToBinary()" style="rounded=0;whiteSpace=wrap;html=1;fontSize=16;" parent="1" vertex="1">
          <mxGeometry x="64.5" y="73" width="183" height="60" as="geometry" />
        </mxCell>
        <mxCell id="GcNyAwlGQuFy15fl2Ail-7" value="" style="edgeStyle=none;curved=1;rounded=0;orthogonalLoop=1;jettySize=auto;html=1;fontSize=12;startSize=8;endSize=8;" parent="1" source="GcNyAwlGQuFy15fl2Ail-4" target="GcNyAwlGQuFy15fl2Ail-6" edge="1">
          <mxGeometry relative="1" as="geometry" />
        </mxCell>
        <mxCell id="GcNyAwlGQuFy15fl2Ail-4" value="binaryToDecimal()" style="rounded=0;whiteSpace=wrap;html=1;fontSize=16;" parent="1" vertex="1">
          <mxGeometry x="64.5" y="253" width="183" height="60" as="geometry" />
        </mxCell>
        <mxCell id="GcNyAwlGQuFy15fl2Ail-10" value="" style="edgeStyle=none;curved=1;rounded=0;orthogonalLoop=1;jettySize=auto;html=1;fontSize=12;startSize=8;endSize=8;" parent="1" source="GcNyAwlGQuFy15fl2Ail-6" target="GcNyAwlGQuFy15fl2Ail-9" edge="1">
          <mxGeometry relative="1" as="geometry" />
        </mxCell>
        <mxCell id="GcNyAwlGQuFy15fl2Ail-6" value="decimalToHex()" style="rounded=0;whiteSpace=wrap;html=1;fontSize=16;" parent="1" vertex="1">
          <mxGeometry x="64.5" y="433" width="183" height="60" as="geometry" />
        </mxCell>
        <mxCell id="8e6vDM3yy56IJZompOLn-2" value="" style="edgeStyle=none;curved=1;rounded=0;orthogonalLoop=1;jettySize=auto;html=1;fontSize=12;startSize=8;endSize=8;" edge="1" parent="1" source="GcNyAwlGQuFy15fl2Ail-9">
          <mxGeometry relative="1" as="geometry">
            <mxPoint x="156" y="793" as="targetPoint" />
          </mxGeometry>
        </mxCell>
        <mxCell id="GcNyAwlGQuFy15fl2Ail-9" value="hexToDecimal()" style="rounded=0;whiteSpace=wrap;html=1;fontSize=16;" parent="1" vertex="1">
          <mxGeometry x="64.5" y="613" width="183" height="60" as="geometry" />
        </mxCell>
        <mxCell id="8e6vDM3yy56IJZompOLn-3" value="Finish" style="rounded=1;whiteSpace=wrap;html=1;fontSize=16;" vertex="1" parent="1">
          <mxGeometry x="96" y="798" width="120" height="60" as="geometry" />
        </mxCell>
        <mxCell id="8e6vDM3yy56IJZompOLn-4" value="Main Routine&lt;br&gt;&lt;br&gt;Start" style="rounded=1;whiteSpace=wrap;html=1;fontSize=16;" vertex="1" parent="1">
          <mxGeometry x="96" y="-110" width="120" height="60" as="geometry" />
        </mxCell>
      </root>
    </mxGraphModel>
  </diagram>
</mxfile>
